<svg width="23" height="25" viewBox="0 0 23 25" fill="none" xmlns="http://www.w3.org/2000/svg">
<path d="M21.625 16.9999V7.99989C21.6246 7.60532 21.5204 7.2178 21.323 6.8762C21.1255 6.5346 20.8417 6.25092 20.5 6.05364L12.625 1.55364C12.283 1.35616 11.895 1.2522 11.5 1.2522C11.105 1.2522 10.717 1.35616 10.375 1.55364L2.5 6.05364C2.1583 6.25092 1.87448 6.5346 1.67702 6.8762C1.47956 7.2178 1.3754 7.60532 1.375 7.99989V16.9999C1.3754 17.3945 1.47956 17.782 1.67702 18.1236C1.87448 18.4652 2.1583 18.7489 2.5 18.9461L10.375 23.4461C10.717 23.6436 11.105 23.7476 11.5 23.7476C11.895 23.7476 12.283 23.6436 12.625 23.4461L20.5 18.9461C20.8417 18.7489 21.1255 18.4652 21.323 18.1236C21.5204 17.782 21.6246 17.3945 21.625 16.9999Z" stroke="#44566C" stroke-width="2" stroke-linecap="round" stroke-linejoin="round"/>
</svg>
